<?xml version="1.0" encoding="UTF-8" standalone="no"?>
<!-- Created with Inkscape (http://www.inkscape.org/) -->

<svg
   xmlns:dc="http://purl.org/dc/elements/1.1/"
   xmlns:cc="http://creativecommons.org/ns#"
   xmlns:rdf="http://www.w3.org/1999/02/22-rdf-syntax-ns#"
   xmlns:svg="http://www.w3.org/2000/svg"
   xmlns="http://www.w3.org/2000/svg"
   xmlns:xlink="http://www.w3.org/1999/xlink"
   version="1.1"
   width="100.06725"
   height="99.947037"
   id="svg3854">
  <defs
     id="defs3856">
    <linearGradient
       x1="117.05355"
       y1="83.525589"
       x2="116.83034"
       y2="62.245369"
       id="linearGradient3852"
       xlink:href="#linearGradient3766"
       gradientUnits="userSpaceOnUse" />
    <linearGradient
       id="linearGradient3766">
      <stop
         id="stop3768"
         style="stop-color:#0645ad;stop-opacity:1"
         offset="0" />
      <stop
         id="stop3770"
         style="stop-color:#398fea;stop-opacity:1"
         offset="1" />
    </linearGradient>
    <linearGradient
       x1="117.05355"
       y1="83.525589"
       x2="116.83034"
       y2="62.245369"
       id="linearGradient3823"
       xlink:href="#linearGradient3766"
       gradientUnits="userSpaceOnUse" />
    <linearGradient
       id="linearGradient3877">
      <stop
         id="stop3879"
         style="stop-color:#0755d4;stop-opacity:1"
         offset="0" />
      <stop
         id="stop3881"
         style="stop-color:#39b2ea;stop-opacity:1"
         offset="1" />
    </linearGradient>
    <linearGradient
       x1="117.05355"
       y1="83.525589"
       x2="116.83034"
       y2="62.245369"
       id="linearGradient3886"
       xlink:href="#linearGradient3766"
       gradientUnits="userSpaceOnUse" />
    <linearGradient
       x1="117.05355"
       y1="83.525589"
       x2="116.83034"
       y2="62.245369"
       id="linearGradient3888"
       xlink:href="#linearGradient3766"
       gradientUnits="userSpaceOnUse" />
  </defs>
  <metadata
     id="metadata3859">
    <rdf:RDF>
      <cc:Work
         rdf:about="">
        <dc:format>image/svg+xml</dc:format>
        <dc:type
           rdf:resource="http://purl.org/dc/dcmitype/StillImage" />
        <dc:title></dc:title>
      </cc:Work>
    </rdf:RDF>
  </metadata>
  <g
     transform="translate(-245.36448,-335.58716)"
     id="layer1">
    <path
       d="m 126.875,72.920212 a 9.9776783,9.9776783 0 1 1 -19.95535,0 9.9776783,9.9776783 0 1 1 19.95535,0 z"
       transform="matrix(4.5679772,0,0,4.5624894,-238.5556,52.855392)"
       id="path2996"
       style="fill:url(#linearGradient3886);fill-opacity:1;stroke:url(#linearGradient3888);stroke-width:1.93733549;stroke-linecap:round;stroke-linejoin:miter;stroke-miterlimit:4;stroke-opacity:1;stroke-dasharray:none" />
    <path
       d="m 277.2878,360.81916 -0.33251,0.33167 1.33428,6.66299 3.00199,0.33168 c 15.96053,-19.24912 32.85575,-0.70752 17.05131,14.94242 -5.27871,5.22696 -6.63016,10.83884 -6.67107,17.65699 0,0.61085 2.3028,1.3327 3.00198,1.3327 0.69918,0 2.66848,-0.72252 2.66848,-1.3327 -0.88719,-5.92497 1.93321,-10.25348 5.33679,-13.65923 11.07525,-11.08209 16.17721,-22.35535 6.4104,-30.42962 -6.91416,-5.71596 -19.99521,-6.66515 -31.8014,4.16177 z"
       id="path3836"
       style="font-size:8.1874342px;font-style:normal;font-variant:normal;font-weight:bold;font-stretch:normal;line-height:125%;letter-spacing:0.37215605px;word-spacing:0px;fill:#ffffff;fill-opacity:1;stroke:#ffffff;stroke-width:3.53775477;stroke-miterlimit:4;stroke-dasharray:none;font-family:Linux Biolinum O;-inkscape-font-specification:Linux Biolinum O Bold" />
    <path
       d="m 294.54019,410.67423 c -2.75331,1.08552 -4.036,2.58372 -4.97786,4.97186 l 0,0.27667 c 0.79669,3.03949 2.00721,4.32069 4.97786,4.97195 l 0.55335,0 c 2.60848,-0.65168 3.96359,-2.00479 4.97795,-4.97195 l 0,-0.27667 c -0.94194,-2.60523 -2.29714,-4.03109 -4.97795,-4.97186 z"
       id="text3774"
       style="font-size:8.1874342px;font-style:normal;font-variant:normal;font-weight:bold;font-stretch:normal;line-height:125%;letter-spacing:0.37215605px;word-spacing:0px;fill:#ffffff;fill-opacity:1;stroke:#ffffff;stroke-width:3.53775477;stroke-miterlimit:4;stroke-dasharray:none;font-family:Linux Biolinum O;-inkscape-font-specification:Linux Biolinum O Bold" />
  </g>
</svg>
