<?xml version="1.0" encoding="utf-8"?>

<!DOCTYPE svg PUBLIC "-//W3C//DTD SVG 1.0//EN"    "http://www.w3.org/TR/2001/REC-SVG-20010904/DTD/svg10.dtd">
<svg  
xmlns="http://www.w3.org/2000/svg" 
xmlns:xlink="http://www.w3.org/1999/xlink" 
width="453.543" 
height="453.543" 
viewBox="0 0 453.543 453.543" 
overflow="visible" 
enable-background="new 0 0 453.543 453.543"
xml:space="preserve">
	
<g id="Bus">
    <path d="M367.524,92.122c-4.208-21.045-17.678-29.463-37.882-37.882c-19.918-8.299-67.648-18.229-102.872-18.507
    	C191.548,36.012,143.819,45.941,123.9,54.24c-20.204,8.418-33.673,16.836-37.882,37.882L70.866,208.794V369.56h26.096v25.211
    	c0,30.739,44.984,30.739,44.984,0V369.56h83.048h0.263h86.341v25.211c0,30.739,44.983,30.739,44.983,0V369.56h26.096V208.794
    	L367.524,92.122z M162.625,65.184h62.631h65.662c12.628,0,12.628,18.941,0,18.941h-65.815h-62.478
    	C149.997,84.125,149.997,65.184,162.625,65.184z M119.472,319.162c-11.918,0-21.58-9.662-21.58-21.58s9.662-21.579,21.58-21.579
    	s21.58,9.661,21.58,21.579S131.39,319.162,119.472,319.162z M225.256,221.09H110.797c-11.206,0-13.552-8.051-12.452-16.162
    	l11.793-84.621c1.62-10.281,5.105-17.059,18.444-17.059h96.521h99.857c13.34,0,16.824,6.778,18.443,17.059l11.795,84.621
    	c1.1,8.111-1.246,16.162-12.452,16.162H225.256z M334.07,319.162c-11.918,0-21.579-9.662-21.579-21.58
    	s9.661-21.579,21.579-21.579s21.579,9.661,21.579,21.579S345.988,319.162,334.07,319.162z"/>
    <rect fill="none" width="453.543" height="453.543"/> 
</g>

</svg>
